<svg width="267" height="267" viewBox="0 0 267 267" fill="none" xmlns="http://www.w3.org/2000/svg">
<path d="M47.5117 133.487C47.5117 180.966 86.0017 219.455 133.481 219.455C178.029 219.455 214.66 185.571 219.014 142.171H179.611C175.516 163.916 156.389 180.415 133.481 180.415C107.597 180.415 86.5467 159.365 86.5467 133.481C86.5467 107.608 107.597 86.5575 133.481 86.5575C144.109 86.5575 153.921 90.1136 161.798 96.0926L185.373 64.9556C170.951 54.0176 152.977 47.5186 133.48 47.5186C86.0017 47.5176 47.5117 86.0075 47.5117 133.487Z" fill="#00BD6A"/>
<path d="M219.013 124.792H179.611C178.269 117.67 175.305 111.118 171.132 105.516L157.196 115.871C160.863 120.792 163.036 126.887 163.036 133.481C163.036 149.785 149.774 163.036 133.481 163.036C117.188 163.036 103.926 149.785 103.926 133.481C103.926 117.188 117.188 103.937 133.481 103.937C140.174 103.937 146.352 106.176 151.313 109.941L133.483 133.489L215.596 51.376L227.892 39.08C203.312 14.511 169.586 0 133.481 0C59.881 0 0 59.881 0 133.481C0 207.092 59.881 266.973 133.481 266.973C204.159 266.973 262.194 211.74 266.691 142.17H266.963V124.791H219.013V124.792ZM133.481 249.595C69.461 249.595 17.379 197.512 17.379 133.482C17.379 69.462 69.462 17.38 133.481 17.38C159.346 17.38 183.807 25.95 203.576 40.916L185.374 64.957L161.799 96.094C153.922 90.115 144.11 86.559 133.482 86.559C107.598 86.559 86.548 107.609 86.548 133.482C86.548 159.366 107.598 180.416 133.482 180.416C156.39 180.416 175.517 163.917 179.612 142.172H219.015H249.27C244.804 202.15 194.579 249.595 133.481 249.595Z" fill="#FEFCF8"/>
<path d="M219.206 69.7949L171.131 105.516C175.305 111.117 178.269 117.67 179.61 124.792H219.012C217.705 111.778 213.49 99.6249 207.034 88.9799L219.206 69.7949Z" fill="#00BD6A"/>
</svg>
